<svg xmlns="http://www.w3.org/2000/svg" viewBox="0 0 64 64">
  <defs><linearGradient id="g" x1="8" y1="5" x2="56" y2="59" gradientUnits="userSpaceOnUse"><stop stop-color="#163d36"/><stop offset="1" stop-color="#0f806f"/></linearGradient></defs>
  <rect width="64" height="64" rx="18" fill="url(#g)"/>
  <path d="M16 16h31a3 3 0 0 1 3 3v29H19a5 5 0 0 1-5-5V18a2 2 0 0 1 2-2Z" fill="#fff" fill-opacity=".12" stroke="#fff" stroke-opacity=".42" stroke-width="2"/>
  <path d="M22 25h13M22 31h19" stroke="#fff" stroke-opacity=".72" stroke-width="3" stroke-linecap="round"/>
  <rect x="23" y="39" width="5" height="8" rx="2" fill="#f5bd4f"/>
  <rect x="31" y="35" width="5" height="12" rx="2" fill="#f5bd4f"/>
  <rect x="39" y="29" width="5" height="18" rx="2" fill="#f5bd4f"/>
  <circle cx="49" cy="15" r="8" fill="#f5bd4f"/>
  <path d="M49 11v8M46.5 13h3.7a1.8 1.8 0 0 1 0 3.6H47" fill="none" stroke="#6b4806" stroke-width="1.6" stroke-linecap="round"/>
</svg>
